<?xml version="1.0" encoding="utf-8"?>
<!-- Generator: Adobe Illustrator 16.0.2, SVG Export Plug-In . SVG Version: 6.00 Build 0)  -->
<!DOCTYPE svg PUBLIC "-//W3C//DTD SVG 1.1//EN" "http://www.w3.org/Graphics/SVG/1.1/DTD/svg11.dtd">
<svg version="1.1" id="Capa_1" xmlns="http://www.w3.org/2000/svg" xmlns:xlink="http://www.w3.org/1999/xlink" x="0px" y="0px"
	 width="266.1px" height="269px" viewBox="0 0 266.1 269" enable-background="new 0 0 266.1 269" xml:space="preserve">
<path fill="#ECF0F1" d="M266.2,135.6c0-73.5-59.6-133-133-133c-73.5,0-133,59.6-133,133c0,73.5,59.6,133,133,133
	C206.7,268.7,266.2,209.1,266.2,135.6z"/>
<g>
	<polygon fill="#00313C" points="165,195.6 207.7,190.2 203.6,194.1 117.6,204.8 119.6,201.5 160.2,196.3 	"/>
	<polygon fill="#00313C" points="163.7,204.5 206.2,199.9 202.3,202 116.8,211.2 118.6,209.5 159,205 	"/>
	<path fill="#00313C" d="M128.7,131.5l-12.7,57.1c18-1.4,31.2-23.8,31.2-42.1c0-12.7-6.4-23.3-22.1-23.3
		c-28.9,0-46.2,15.6-46.2,41.6c0,8.7,2.3,10.1,2.5,11.6c-12.3,0-19.1-4.3-19.1-16.6c0-22.8,32.8-44.5,62.6-44.5
		c29.2,0,42.1,16.1,42.1,33.7c0,21.7-19.4,45.9-51.5,45.9h-0.9l-10.9,48.8L84,245l36.6-108.5L128.7,131.5z"/>
	<path fill="#00313C" d="M153.1,77.2c-3.7,0-6.8-1.3-9.5-4.7c5.6-3.6,16-11.5,16-19c0-7.8-11.1-18.9-22.4-18.9
		c-11.3,0-23.3,12.8-23.3,26.3c0,33,51.1,35.2,51.1,83.6c0,37.7-27.5,52.7-57.3,52.7c-23.5,0-45.3-9.9-45.3-37.3
		c0-24.2,41.3-44.5,55.7-44.5c7.2,0-14.3,7.9-2.7,9c-6.2-0.6-35.2,6.9-36.4,40.5c-0.7,20.3,22.6,23.7,35.7,23.7
		c13.8,0,43.5-13.9,44.8-35.8c2.4-41.5-51.6-53.5-51.6-86.5c0-23.3,2.3-38.7,28.9-38.7c9.7,0,33.2,2.2,33.2,26.9
		C170,67.5,163.4,77.2,153.1,77.2z"/>
	<path fill="#00313C" d="M213.4,146.6c11.9,0,17.6,7.9,17.6,16.3c0,9.6-7.4,19.9-21.3,19.9c-7.4,0-12.4-3.3-15.8-7.4l2.5-2.5
		c3.4,4.6,7.6,7,13.3,7c11.4,0,17.3-8.7,17.3-16.8c0-7.2-4.5-14-13.7-14c-22,0-22.8,39.1-39.7,39.1c-6.2,0-8.7-6.1-8.7-13.3
		c0-11.1,5.8-25.1,13.6-25.1c3.2,0,4.7,2.1,4.7,5.1c0,4.3-3.5,10.2-10.5,13.8c-1.1,0.6-2,1-3.4,1.2c-0.3,2-0.5,4-0.5,5.9
		c0,5.6,1.6,10.1,5.6,10.1C185.3,185.8,188.8,146.6,213.4,146.6z M169.7,167.7c6.9-3.8,10-9.6,10-12.8c0-1.3-0.6-2.2-1.6-2.2
		C174.6,152.7,171.2,160,169.7,167.7z"/>
</g>
<g>
	<g>
		<path fill="#00313C" d="M147.7,233.1c2.2-6.9,3.5-13.7,3.9-16.2l0.8,0.1c-0.5,2.5-1.6,9.2-4,16.3
			C148.2,233.3,147.9,233.2,147.7,233.1z"/>
		<path fill="#00313C" d="M154.6,231.7l0.1-0.7h1.5c0.7-4.6,1.5-8.2,1.5-8.2s-0.7,1.1-1.8,2.1l-0.4-0.7c1.4-1.1,2.8-2.9,2.8-2.9
			l0.8,0.3c-0.1,0.5-0.9,4-1.7,9.4h1.5l-0.1,0.7H154.6z"/>
		<path fill="#00313C" d="M176.5,223.9c0,0.3,0.1,0.7,0.2,1l-1,0.5c-0.2-0.4-0.3-0.8-0.3-1.2c0-1.4,1-3,2.8-3c1.6,0,2.3,1,2.3,2.4
			c0,3.1-3,4.4-5,7.2c0.2-0.1,0.4-0.1,0.6-0.1c0.5,0,1.1,0.1,1.6,0.1c0.9,0,1.4-0.2,1.7-0.5c0.2,0.3,0.5,0.6,0.7,0.8
			c-0.4,0.4-0.8,0.6-1.5,0.6c-1,0-2-0.4-2.8-0.4c-0.3,0-0.8,0.1-0.9,0.5l-0.8-0.4c0.1-0.2,0.3-0.5,0.5-0.8c2.1-3.1,4.8-4.5,4.8-7.1
			c0-0.9-0.5-1.5-1.3-1.5C177,221.9,176.5,222.8,176.5,223.9z"/>
		<path fill="#00313C" d="M180.7,233.5c2.2-6.9,3.5-13.7,3.9-16.2l0.8,0.1c-0.5,2.5-1.6,9.2-4,16.3
			C181.2,233.7,180.9,233.6,180.7,233.5z"/>
		<path fill="#00313C" d="M171.1,226.8c0,0.6-0.8,1.2-1.7,1.2c-1.3,0-1.8-1.2-1.8-2.3c0-2.1,1.5-3.8,3.3-3.8c2,0,2.5,1.4,2.5,3
			c0,3.9-1.7,6.7-4.4,6.7c-1,0-1.5-0.6-1.5-1.2c0-0.5,0.2-1,1.1-1c-0.1,0.1-0.2,0.3-0.2,0.4c0,0.4,0.3,0.7,0.7,0.7
			c0.4,0,2.3-0.1,2.7-5.3c0-0.2,0-0.5,0-0.7c0-1.6-0.5-1.9-1.1-1.9c-0.8,0-1.6,1.5-1.6,2.8c0,0.5,0.1,1.3,0.7,1.3
			c0.5,0,0.9-0.2,1.1-0.8C171,226.4,171.1,226.6,171.1,226.8z"/>
		<path fill="#00313C" d="M164.4,226c0,0.8-0.9,1.4-2,1.4c-1.5,0-2.1-1.4-2.1-2.6c0-2.5,1.7-4.4,3.9-4.4c2.3,0,2.9,1.6,2.9,3.5
			c0,4.5-1.9,7.8-5.1,7.8c-1.1,0-1.8-0.7-1.8-1.4c0-0.6,0.2-1.1,1.3-1.1c-0.2,0.2-0.2,0.3-0.2,0.5c0,0.4,0.3,0.8,0.8,0.8
			c0.4,0,2.7-0.1,3.1-6.2c0-0.3,0-0.5,0-0.8c0-1.9-0.5-2.2-1.3-2.2c-1,0-1.9,1.7-1.9,3.3c0,0.6,0.2,1.6,0.8,1.6c0.6,0,1-0.2,1.3-0.9
			C164.3,225.5,164.4,225.8,164.4,226z"/>
	</g>
	<g>
		<path fill="#00313C" d="M123.4,222.9c-0.3,0-0.5-0.1-0.6-0.3c0.4-0.2,0.6-0.7,0.6-1.2c0-0.5-0.3-0.9-1-0.9s-1.3,0.4-1.3,1.3
			c0,2.1,3.2,2.4,3.2,5.4c0,2.4-1.9,3.5-4,3.5c-1.6,0-3-0.7-3-2.4c0-1.5,1.1-2.3,2.1-2.3c0.5,0,1.2,0.2,1.2,0.9
			c-0.8,0-1.7,0.4-1.7,1.3c0,0.7,0.5,1.4,1.4,1.4c0.9,0,1.6-0.7,1.6-1.9c0-2.4-2.9-3.3-2.9-5.4c0-1.5,1.4-2.5,3.3-2.5
			c0.7,0,2.3,0.1,2.3,1.7C124.6,222.3,124.1,222.9,123.4,222.9z"/>
		<path fill="#00313C" d="M127.9,223.3l-1,4.8c0,0.2-0.1,0.3-0.1,0.5c0,0.4,0.2,0.5,0.6,0.5c0.6,0,1.1-0.5,1.3-1.2h0.6
			c-0.8,2.3-2.2,2.6-3,2.6c-0.8,0-1.5-0.5-1.5-1.7c0-0.3,0-0.6,0.1-0.9l1-4.5H127.9z M127.3,220.3c0.6,0,1.1,0.5,1.1,1.1
			c0,0.6-0.5,1.1-1.1,1.1c-0.6,0-1.1-0.5-1.1-1.1C126.2,220.8,126.7,220.3,127.3,220.3z"/>
		<path fill="#00313C" d="M132.3,224.5c-0.5,0-0.9,0.6-1.1,1.3l-1,4.5h-2l1.5-7.1h2l-0.2,0.7c0.6-0.7,1.2-0.8,1.7-0.8
			c0.9,0,1.6,0.5,1.6,1.6c0,1.1-0.7,2.9-0.7,3.6c0,0.4,0.1,0.6,0.6,0.6c0.6,0,0.9-0.5,1.2-1.2h0.6c-0.8,2.3-1.9,2.6-2.6,2.6
			c-1.2,0-1.7-0.8-1.7-1.6c0-1,0.6-2.7,0.6-3.6C132.8,224.8,132.6,224.5,132.3,224.5z"/>
		<path fill="#00313C" d="M139.9,224.5c0-0.4-0.1-0.6-0.4-0.6c-0.9,0-1.8,2.6-1.8,4.2c0,1,0.3,1.2,1,1.2c1.1,0,1.8-0.6,2.5-1.4h0.5
			c-0.8,1.3-2,2.6-3.9,2.6c-1.3,0-2.2-0.6-2.2-2.2c0-1.6,0.9-5,3.8-5c1.3,0,1.6,0.6,1.6,1.3c0,0.7-0.3,1-0.7,1
			c-0.2,0-0.3-0.1-0.5-0.2C139.9,225,139.9,224.7,139.9,224.5z"/>
		<path fill="#00313C" d="M144,229.1c0.5,0,1.2-0.4,1.7-0.7c-0.3,1.6-1.3,2.1-2.4,2.1c-1.3,0-2.2-0.6-2.2-2.2c0-1.6,0.9-5,3.8-5
			c1.3,0,1.6,0.6,1.6,1.4c0,1.6-1.6,2.9-3.3,3c0,0.1,0,0.3,0,0.4C143.2,228.8,143.5,229.1,144,229.1z M145,223.9
			c-0.7,0-1.4,1.6-1.7,2.9c1.1-0.1,2.1-1.1,2.1-2.3C145.3,224.1,145.3,223.9,145,223.9z"/>
	</g>
</g>
<path fill="none" d="M266.2,135.3c0-73.5-59.6-133-133-133c-73.5,0-133,59.6-133,133c0,73.5,59.6,133,133,133
	C206.7,268.3,266.2,208.8,266.2,135.3z"/>
</svg>
