<?xml version="1.0" encoding="utf-8"?>
<!-- Generator: Adobe Illustrator 16.0.2, SVG Export Plug-In . SVG Version: 6.00 Build 0)  -->
<!DOCTYPE svg PUBLIC "-//W3C//DTD SVG 1.1//EN" "http://www.w3.org/Graphics/SVG/1.1/DTD/svg11.dtd">
<svg version="1.1" id="Capa_1" xmlns="http://www.w3.org/2000/svg" xmlns:xlink="http://www.w3.org/1999/xlink" x="0px" y="0px"
	 width="266.1px" height="269px" viewBox="0 0 266.1 269" enable-background="new 0 0 266.1 269" xml:space="preserve">
<path fill="#ECF0F1" d="M266.2,135.6c0-73.5-59.6-133-133-133c-73.5,0-133,59.6-133,133c0,73.5,59.6,133,133,133
	C206.7,268.7,266.2,209.1,266.2,135.6z"/>
<g>
	<defs>
		<path id="SVGID_7_" d="M266.2,135.3c0-73.5-59.6-133-133-133c-73.5,0-133,59.6-133,133c0,73.5,59.6,133,133,133
			C206.7,268.3,266.2,208.8,266.2,135.3z"/>
	</defs>
	<clipPath id="SVGID_2_">
		<use xlink:href="#SVGID_7_"  overflow="visible"/>
	</clipPath>
	<g clip-path="url(#SVGID_2_)">
		<path opacity="0.2" fill="#202020" d="M16.6,228.6L2.3,161.1c0-1.5-5.3-15.4-4.7-23.2l128.8-88.3c1.5,0,0.4,195.8,0.4,197.3
			l-35.9,19.4L16.6,228.6z"/>
		<g>
			<path fill="#363636" d="M81.9,72.2c10-9.8,45.2-14.7,45.2-14.7s35.9-4.4,45.9,5.4c10,9.8,15.2,32.4,15,41.6
				c-0.2,9.2-3.1,40.7-3.1,40.7l-9.9-0.8L127,95.6l-47.8,48.8l-9.9,0.8c0,0-2.9-31.5-3.1-40.7C66,95.4,71.9,82.1,81.9,72.2z"/>
			<path fill="#A69475" d="M69.5,155.9c1-2.9,1.3-25.1,3.5-26.4c-1.2-3.6-0.5-16.7,2-24.6c2.5-7.9,12.8-9,16.1-10
				c25.5-8.3,35.8,1.1,35.8,1.1s10.1-9.4,35.6-1.1c3.3,1.1,13.4,2.1,15.8,10c2.5,7.9,3.2,20.9,2,24.6c2.2,1.3,2.5,23.5,3.5,26.4
				c1,2.9,1,24,0,27.6c-1,3.6-7,14.3-10.4,21.1c-3.5,6.8-4.9,40.1-46.5,42.2c-39.9-4.5-40.5-34.8-43.9-41.6
				c-3.5-6.8-12.4-18.1-13.4-21.7C68.5,180,68.5,158.8,69.5,155.9z"/>
			<ellipse cx="148.9" cy="185.7" rx="0.7" ry="0.7"/>
			<path fill="#363636" d="M127,245.2c0,0,5.4,0.1,11.6,0c-2.4,1.6-12,2-12,2l-11.8-2.8L127,245.2z"/>
			<path opacity="0.1" fill="#202020" d="M84.1,78.4c-1.6,0.9-1.6-3.6-2.7-2.6c-10,9.4-15.9,22.2-15.7,31c0.2,5.7,1.1,20.3,2,29.9
				c0,0,0,0.1,0,0.1c0.6,5.2,2.3,10.3,2,15.5c-0.2,4.4-0.8,8.8-1,13.2c0.1,0.1,0.1,0.2,0.2,0.2c0.8,1.9,1,3.6,0.8,5.6
				c-0.1,0.8-0.8,1.1-1.4,0.9c0.1,4.5,0.3,8.4,0.7,9.8c1,3.6,8,11.7,11.4,18.4c3.5,6.7,5.3,44.3,47.3,46.4l-1.4-197.2
				C109.6,61.6,86.6,69,84.1,78.4z"/>
			<path fill="#363636" d="M132.3,86.3c0,0,9.5-7.2,18.7-6.2s21.1,4.7,21.1,4.7s3.4-33.7-32.6-37c-34.3-3.2-57.5,34.6-74.2,16.3
				C67.1,84.5,100,79.1,107.6,77C118.4,74.1,131.6,81.5,132.3,86.3z"/>
			<g>
				<path d="M171.9,157c-1.2-4.9-6.7-11-10.5-11.5c-5.5-0.7-30.5,3.5-28.1,8.7c2.3,5,25.4-3.5,28.6-3
					C164.6,151.6,170.1,154.9,171.9,157z"/>
				<path d="M83.5,157c1.1-4.9,6.5-11,10.2-11.5c5.3-0.7,29.6,3.5,27.3,8.7c-2.2,5-23.8-3.5-26.9-3C91.4,151.6,85.3,154.9,83.5,157z
					"/>
			</g>
			<g>
				<path fill="#FFFFFF" d="M141.3,164.9c0,0,5,2.3,11.6,1.9c6-0.3,10.3-3.1,10.3-3.1l-3-4.7l-10.2-0.4"/>
				<path d="M147.3,161.3c0-0.2,0-0.4,0-0.6c2-1.1,4.3-1.9,6.4-2c1.6,0,3.1,0.3,4.3,0.9c0.2,0.5,0.3,1.1,0.3,1.7
					c0,3.1-2.5,5.5-5.5,5.5c-0.2,0-0.5,0-0.7-0.1C149.4,166.4,147.3,164.1,147.3,161.3z"/>
				<path d="M151.9,157.9c8.4-1.9,10,1.9,12.1,5.2c-2.2,1.3-0.8,0.5-0.8,0.5s-3.5-5.2-9.4-5c-5.9,0.2-12.5,6.3-12.5,6.3
					S143.8,159.7,151.9,157.9z"/>
			</g>
			<g>
				<path fill="#FFFFFF" d="M114.5,164.9c0,0-5,2.3-11.6,1.9c-6-0.3-10.3-3.1-10.3-3.1l3-4.7l10.3-0.4"/>
				<path d="M108.4,161.3c0-0.2,0-0.4,0-0.6c-2-1.1-4.3-1.9-6.4-2c-1.6,0-3.1,0.3-4.3,0.9c-0.2,0.5-0.3,1.1-0.3,1.7
					c0,3.1,2.5,5.5,5.5,5.5c0.2,0,0.5,0,0.7-0.1C106.3,166.4,108.4,164.1,108.4,161.3z"/>
				<path d="M103.8,157.9c-8.4-1.9-10,1.9-12.1,5.2c2.2,1.3,0.8,0.5,0.8,0.5s3.5-5.2,9.4-5c5.9,0.2,12.5,6.3,12.5,6.3
					S111.9,159.7,103.8,157.9z"/>
			</g>
			<path fill="#363636" d="M188.8,130.1c0-0.3-0.1-0.5-0.1-0.8c-0.7-4.3-1.1-8.7-1.3-13.1c-0.1-2-0.1-4,0.1-5.9
				c-2.2-8.2-4.8-16-10.1-23c-1.5-1.9-2.8-4-3.7-6.3c-1.2-3.2-3.3-5.6-6.1-7.2c-6-3.4-7.8-9.2-9.3-15.4h3.3c-1.2-0.9-2.1-1.6-3-2.4
				c0.6-0.3,1-0.5,1.4-0.7c-0.5-0.3-0.9-0.6-1.4-1c-2,0.1-4,0.3-6.3,0.4c0.4-1,0.8-2,1.3-3c-0.9-0.1-1.8-0.4-2.6-0.8
				c-0.4,0.3-0.7,0.7-1.1,1c-0.3-0.7-0.5-1.4-0.8-2c-0.8-0.4-1.5-0.9-2.2-1.3c0.1,0.3,0.2,0.6,0.3,0.9c-7.8-1.4-4.8-7.2-5.1-11.4
				c-2.3-0.5-3.9-0.2-5.4,1.6c-2.8,3.4-6.5,6-10.7,7.8c0.1-0.2,0.2-0.3,0.2-0.5c-1.5,0.6-2.9,1.3-4.4,1.9c-1.6,1.8-3.3,3.6-4.9,5.5
				c-0.7-1-1.4-1.9-2-2.7c0,0-0.1,0-0.1,0.1c-1.2,0.5-2.4,0.9-3.6,1.3c-1.7,1-3.3,2-5,2.9c-0.4,3.5-3.2,3.9-5.4,5
				c-0.3-0.2-0.6-0.4-0.9-0.6c0.4-0.7,0.8-1.3,1.2-2c-0.8,0.4-1.6,0.8-2.5,1.2c-0.5,1.5-1,3-1.6,4.5c-0.4,1-1.2,1.8-2,2.5
				c-2.1,1.7-4.4,3.1-6.3,4.9c-1.4,1.3-2.5,1.7-4,0.5c-1.5-1.2-2.5-0.5-3.2,0.9c0.6,0.7,1.1,1.3,2,2.5c-6.3,0.2-9.1,4.1-10.8,8.8
				c-2,5.7-3.3,11.8-5.8,17.3c0.2,0.2,0.4,0.5,0.3,0.9c-0.2,1.4-0.3,2.9-0.4,4.3c0.1,0.2,0.2,0.4,0.2,0.6c-0.1,4.8,1,9.4,1.2,14.1
				c0.2,4.4,0.1,8.9,0.3,13.3c0.1,3.1,0.2,6.2,0.1,9.2c0.6,2.5,0.9,5,0.4,7.3c0.1,1.2,0.1,2.5-0.1,3.7c1.1,5.1,1.8,9.7,3.3,14
				c1.5,4.5,3.8,8.7,5.6,12.7c0-0.1,0-0.5,0-0.9c-0.9-17.6,0.8-35.1,3.1-52.6c0.7-5.1,1.6-10.3,6.3-13.1c3.7-2.1,8.1-3.2,12.3-4.4
				c3.2-0.9,6.3-0.8,9.4,1.2c3.5,2.2,7.5,1.9,11.3,0.2c0.9-0.4,2.1-1.3,2.4-2.1c0.6-2.1,2-3.3,3.8-3.9c3.9-1.4,7.9-3,11.9-3.7
				c3.7-0.7,7.6-0.9,11.3-0.4c11.1,1.6,19.3,10.5,20.4,21.6c0.6,5.8,1.3,11.6,4,17c2.8,5.5,3.6,11.5,3.6,17.6c0,2.7,0.2,5.4,0.3,8.1
				c0.2,3.8,0.9,7.7-1.2,11.5c1.9-1.2,3.8-2.5,4.6-4.3c1.2-2.6,2.2-5.4,3.7-8c1-1.8,1.2-4.2,1.8-6.4c0.3,0.2,0.5,0.3,0.6,0.4
				c0.2-1.2,0.4-2.3,0.5-3.5c0.7-7.2-0.1-14.5,0.5-21.8C188.5,133.1,188.7,131.6,188.8,130.1z"/>
			<path fill-rule="evenodd" clip-rule="evenodd" fill="#363636" d="M107.2,218.3c4.1-0.6,7.7-1.3,11.4-1.6c1.7-0.1,3.6,0.3,5.2,0.8
				c1.7,0.5,3.1,0.6,4.8-0.1c1.4-0.5,2.9-0.6,4.3-0.9c2.7-0.6,5.4-1.2,8.1-2c1.4-0.4,2.6-1,4.3-1.6c-0.7,1.9-1.4,2.9-3.3,3.2
				c-4.9,0.9-9.8,2.1-14.7,3.1c-1,0.2-2.2,0.3-3.2,0c-3.3-1.2-6.6-1-10-0.4C112,219.4,109.7,219.7,107.2,218.3z"/>
			<path fill-rule="evenodd" clip-rule="evenodd" fill="#363636" d="M116.3,228.6c6.3,0,12.7,0,19.3,0
				C132.7,232.2,119.5,231.8,116.3,228.6z"/>
			<path fill-rule="evenodd" clip-rule="evenodd" fill="#363636" d="M122.9,211.7c2,0,4,0,5.8,0
				C127.4,214.1,124.8,214.2,122.9,211.7z"/>
			<path fill-rule="evenodd" clip-rule="evenodd" d="M182.9,179.9c0.8,1,1.7,1.7,1.6,2.2c-0.1,0.7-1,1.2-1.6,1.8
				c-0.6-0.6-1.5-1.1-1.6-1.8C181.2,181.7,182.1,181,182.9,179.9z"/>
		</g>
	</g>
</g>
</svg>
